<?xml version="1.0" encoding="utf-8"?>
<!-- Generator: Adobe Illustrator 12.0.0, SVG Export Plug-In . SVG Version: 6.00 Build 51448)  -->
<!DOCTYPE svg PUBLIC "-//W3C//DTD SVG 1.1//EN" "http://www.w3.org/Graphics/SVG/1.1/DTD/svg11.dtd" [
	<!ENTITY ns_svg "http://www.w3.org/2000/svg">
	<!ENTITY ns_xlink "http://www.w3.org/1999/xlink">
]>
<svg  version="1.1" id="Layer_1" xmlns="&ns_svg;" xmlns:xlink="&ns_xlink;" width="187.238" height="187.238"
      viewBox="0 0 187.238 187.238" overflow="visible" enable-background="new 0 0 187.238 187.238" xml:space="preserve">
<circle fill="none" stroke="black" stroke-width="11" cx="93.619" cy="93.619" r="88.119"/>
<path fill="black" stroke="none" d="M87.611,125.104l21.898-25.027H59.456l-21.899,25.027H87.611z M153.633,54.911c0.653,1.478,0.859,3.03,0.619,4.662
	c-0.239,1.629-0.901,3.052-1.987,4.268l-58.396,66.739c-1.65,1.911-3.737,2.868-6.257,2.868H37.556c-1.65,0-3.16-0.446-4.529-1.336
	c-1.368-0.893-2.4-2.075-3.096-3.55c-0.651-1.479-0.857-3.034-0.619-4.663c0.238-1.629,0.902-3.051,1.988-4.27l58.396-66.737
	c1.652-1.913,3.737-2.868,6.257-2.868h50.054c1.651,0,3.16,0.445,4.532,1.335C151.904,52.249,152.937,53.435,153.633,54.911
	L153.633,54.911z"/>
</svg>
